<?xml version="1.0" standalone="no"?><!DOCTYPE svg PUBLIC "-//W3C//DTD SVG 1.1//EN" "http://www.w3.org/Graphics/SVG/1.1/DTD/svg11.dtd"><svg t="1618219787751" class="icon" viewBox="0 0 1024 1024" version="1.1" xmlns="http://www.w3.org/2000/svg" p-id="13210" width="200" height="200" xmlns:xlink="http://www.w3.org/1999/xlink"><defs><style type="text/css"></style></defs><path d="M446.88 163.04a78.88 78.88 0 1 0 0-157.76 78.88 78.88 0 0 0 0 157.76z m496.384 549.312l-227.36 32.736-5.952-42.592 96.416-14.72a46.016 46.016 0 0 0 38.656-52.448c-3.84-25.184-37.152-63.104-62.208-59.36 0 0-178.112 68.64-239.232 91.968-9.888 3.808-15.712 15.2-12.224 22.944 3.424 7.776 4.32 9.536 6.752 15.2 3.008 6.4 12.704 20.64 24.608 18.784 11.712-1.888 87.904-13.44 87.904-13.44l5.92 42.048-76.416 11.008s-14.592 4.768-7.904 17.408c3.104 6.784 16.768 36.448 23.072 51.968 10.752 26.304 4.672 57.792-21.824 69.728-59.04 26.528-92.832-40.224-134.944-104.416a24.896 24.896 0 0 0-23.968-11.008l-134.432 19.488a24.416 24.416 0 0 1-26.912-17.408L147.424 414.496s13.952 2.624 39.744-0.992c18.912-2.592 22.368-9.504 23.84-19.392 3.104-20.48-72.352-183.808-72.352-183.808a24.224 24.224 0 0 0-22.848-16.032l-70.848 0.384a24.192 24.192 0 0 0-23.2 30.976l164.16 567.84a24.256 24.256 0 0 1-19.872 30.72l-135.296 19.488a24.192 24.192 0 0 0-20.736 23.968l-0.48 124.288a24.32 24.32 0 0 0 24.32 24.48h912.576c13.472 0 24.352-10.88 24.352-24.192l0.64-255.776a24.864 24.864 0 0 0-28.16-24.096z" p-id="13211" fill="#FFF842"></path><path d="M250.368 394.272c6.176 0 208.992-66.176 208.992-66.176a25.088 25.088 0 0 1 30.4 12.576l60.704 128.896a23.936 23.936 0 0 1-10.144 31.584l-96 54.304c-0.608 0-49.248 22.72-61.952 66.432a81.92 81.92 0 0 0-3.232 21.44c0 20.832 8.288 42.976 24.064 66.4 59.392 87.904 112 173.216 137.76 180.16 19.648 5.12 43.2-12.864 36.672-36.8-1.472-5.184-48.096-117.408-70.24-166.048-5.664-12.576 0.64-27.136 13.984-32.192a30801.44 30801.44 0 0 1 168.768-60.704c2.432-1.216 46.752-20.864 65.632-68.288a121.28 121.28 0 0 0 8.928-47.392c0-24.672-5.696-51.232-18.304-79.616l-21.472-50.592c-34.08-82.208-58.752-140.96-104.928-166.272l-0.64-0.64c-1.216-0.64-18.976-11.328-51.232-11.328-25.92 0-61.952 6.88-106.752 32.8-98.016 56.32-239.36 127.04-239.36 162.816a28.48 28.48 0 0 0 28.352 28.64z" p-id="13212" fill="#FFF842"></path></svg>